Normalized EMG Linear Envelopes
nRows=259
nColumns=4

endheader
time	 med_gas_r	  soleus_r	 tib_ant_r	
3.19355	  0.001955	  0.003176	  0.001211	
3.22681	  0.002012	  0.003181	  0.001237	
3.26008	  0.002068	  0.003186	  0.001257	
3.29335	  0.002114	  0.003190	  0.001258	
3.32661	  0.002143	  0.003190	  0.001236	
3.35988	  0.002145	  0.003184	  0.001197	
3.39315	  0.002119	  0.003169	  0.001147	
3.42641	  0.002073	  0.003146	  0.001101	
3.45968	  0.002017	  0.003127	  0.001068	
3.49294	  0.001965	  0.003110	  0.001055	
3.52621	  0.001918	  0.003094	  0.001065	
3.55948	  0.001875	  0.003082	  0.001097	
3.59274	  0.001848	  0.003081	  0.001146	
3.62601	  0.001839	  0.003097	  0.001204	
3.65927	  0.001843	  0.003121	  0.001260	
3.69254	  0.001850	  0.003135	  0.001306	
3.72581	  0.001853	  0.003137	  0.001338	
3.75907	  0.001860	  0.003136	  0.001357	
3.79234	  0.001870	  0.003135	  0.001364	
3.8256	  0.001889	  0.003133	  0.001356	
3.85887	  0.001927	  0.003122	  0.001320	
3.89214	  0.001989	  0.003102	  0.001233	
3.9254	  0.002070	  0.003080	  0.001085	
3.95867	  0.002153	  0.003060	  0.000878	
3.99194	  0.002218	  0.003039	  0.000606	
4.0252	  0.002246	  0.003016	  0.000272	
4.05847	  0.002233	  0.002992	 -0.000098	
4.09173	  0.002194	  0.002972	 -0.000443	
4.125	  0.002153	  0.002962	 -0.000667	
4.15827	  0.002125	  0.002982	 -0.000634	
4.19153	  0.002119	  0.003069	 -0.000140	
4.2248	  0.002148	  0.003267	  0.001072	
4.25806	  0.002225	  0.003630	  0.003292	
4.29133	  0.002352	  0.004212	  0.006806	
4.3246	  0.002526	  0.005050	  0.011834	
4.35786	  0.002744	  0.006138	  0.018430	
4.39113	  0.003003	  0.007410	  0.026422	
4.4244	  0.003292	  0.008766	  0.035707	
4.45766	  0.003637	  0.010320	  0.046944	
4.49093	  0.004091	  0.012409	  0.060824	
4.52419	  0.004666	  0.015244	  0.076967	
4.55746	  0.005334	  0.018781	  0.093927	
4.59073	  0.006069	  0.022846	  0.110713	
4.62399	  0.006858	  0.027377	  0.127294	
4.65726	  0.007703	  0.032402	  0.144357	
4.69052	  0.008632	  0.037930	  0.161956	
4.72379	  0.009658	  0.043835	  0.179665	
4.75706	  0.010803	  0.050108	  0.196368	
4.79032	  0.012079	  0.056716	  0.210580	
4.82359	  0.013428	  0.063237	  0.221227	
4.85685	  0.014719	  0.069168	  0.227683	
4.89012	  0.015879	  0.074419	  0.230725	
4.92339	  0.016926	  0.079123	  0.232114	
4.95665	  0.017916	  0.083316	  0.234159	
4.98992	  0.018919	  0.087114	  0.239459	
5.02319	  0.019945	  0.090492	  0.250182	
5.05645	  0.020992	  0.093924	  0.267772	
5.08972	  0.022098	  0.098071	  0.291599	
5.12298	  0.023363	  0.103405	  0.319876	
5.15625	  0.024766	  0.110016	  0.350236	
5.18952	  0.026143	  0.116987	  0.380277	
5.22278	  0.027336	  0.123075	  0.407239	
5.25605	  0.028186	  0.127595	  0.429156	
5.28931	  0.028730	  0.131207	  0.445878	
5.32258	  0.029035	  0.134453	  0.458565	
5.35585	  0.029165	  0.137159	  0.468465	
5.38911	  0.029233	  0.139358	  0.476480	
5.42238	  0.029161	  0.140490	  0.483658	
5.45565	  0.028945	  0.140348	  0.491868	
5.48891	  0.028795	  0.139884	  0.503327	
5.52218	  0.028854	  0.139765	  0.517539	
5.55544	  0.029105	  0.139758	  0.535088	
5.58871	  0.029415	  0.139356	  0.554276	
5.62198	  0.029783	  0.139161	  0.572397	
5.65524	  0.030170	  0.139398	  0.588004	
5.68851	  0.030691	  0.140587	  0.602200	
5.72177	  0.031602	  0.143904	  0.617123	
5.75504	  0.033116	  0.150349	  0.632556	
5.78831	  0.035255	  0.160114	  0.647431	
5.82157	  0.037800	  0.172262	  0.660273	
5.85484	  0.040399	  0.185269	  0.669527	
5.8881	  0.042768	  0.197783	  0.673197	
5.92137	  0.044814	  0.209824	  0.670228	
5.95464	  0.046375	  0.220505	  0.662347	
5.9879	  0.047347	  0.228724	  0.652505	
6.02117	  0.047834	  0.234035	  0.643984	
6.05444	  0.047881	  0.236133	  0.638043	
6.0877	  0.047390	  0.234781	  0.633001	
6.12097	  0.046125	  0.229289	  0.628620	
6.15423	  0.044121	  0.219812	  0.623833	
6.1875	  0.041761	  0.207896	  0.614052	
6.22077	  0.039455	  0.195666	  0.598097	
6.25403	  0.037489	  0.184678	  0.580137	
6.2873	  0.035974	  0.175801	  0.566606	
6.32056	  0.035162	  0.170546	  0.562184	
6.35383	  0.035253	  0.169271	  0.567761	
6.3871	  0.036388	  0.171524	  0.585129	
6.42036	  0.038593	  0.177290	  0.613570	
6.45363	  0.041531	  0.185330	  0.650846	
6.4869	  0.044638	  0.193578	  0.690562	
6.52016	  0.047327	  0.200413	  0.726457	
6.55343	  0.049222	  0.204755	  0.755225	
6.58669	  0.050393	  0.205986	  0.778294	
6.61996	  0.050928	  0.204501	  0.794914	
6.65323	  0.050859	  0.201020	  0.801715	
6.68649	  0.050542	  0.197205	  0.797910	
6.71976	  0.050243	  0.194077	  0.787679	
6.75302	  0.050218	  0.192458	  0.777106	
6.78629	  0.050312	  0.192297	  0.768652	
6.81956	  0.050010	  0.191538	  0.762884	
6.85282	  0.049193	  0.188819	  0.759814	
6.88609	  0.047956	  0.183589	  0.757155	
6.91935	  0.046675	  0.177139	  0.753807	
6.95262	  0.045844	  0.172488	  0.751264	
6.98589	  0.045573	  0.171599	  0.751127	
7.01915	  0.045863	  0.174980	  0.754245	
7.05242	  0.046505	  0.181422	  0.758632	
7.08569	  0.047168	  0.189090	  0.758467	
7.11895	  0.047524	  0.196445	  0.750297	
7.15222	  0.047283	  0.201754	  0.735139	
7.18548	  0.046414	  0.203808	  0.717434	
7.21875	  0.044910	  0.201298	  0.702589	
7.25202	  0.043152	  0.195548	  0.693377	
7.28528	  0.041600	  0.188782	  0.688480	
7.31855	  0.040570	  0.182764	  0.685775	
7.35181	  0.040061	  0.178267	  0.686176	
7.38508	  0.039936	  0.175317	  0.688582	
7.41835	  0.040092	  0.173415	  0.693656	
7.45161	  0.040493	  0.171897	  0.702588	
7.48488	  0.041190	  0.170343	  0.716760	
7.51815	  0.042133	  0.168482	  0.734413	
7.55141	  0.043144	  0.166307	  0.752982	
7.58468	  0.044033	  0.164507	  0.768650	
7.61794	  0.044796	  0.163670	  0.781452	
7.65121	  0.045295	  0.163393	  0.788267	
7.68448	  0.045178	  0.162152	  0.786233	
7.71774	  0.044319	  0.159673	  0.776008	
7.75101	  0.043192	  0.157701	  0.759861	
7.78427	  0.042402	  0.158236	  0.742576	
7.81754	  0.042330	  0.162637	  0.728144	
7.85081	  0.043038	  0.170777	  0.719314	
7.88407	  0.044378	  0.181372	  0.713611	
7.91734	  0.045909	  0.192346	  0.707659	
7.9506	  0.047074	  0.201379	  0.702176	
7.98387	  0.047503	  0.206682	  0.697599	
8.01714	  0.047251	  0.208403	  0.694402	
8.0504	  0.046620	  0.208470	  0.693562	
8.08367	  0.045970	  0.209258	  0.691340	
8.11694	  0.045398	  0.211245	  0.680846	
8.1502	  0.044974	  0.213847	  0.661002	
8.18347	  0.045010	  0.217021	  0.638619	
8.21673	  0.045559	  0.220631	  0.623950	
8.25	  0.046250	  0.222559	  0.621338	
8.28327	  0.046666	  0.219989	  0.628002	
8.31653	  0.046597	  0.212669	  0.638170	
8.3498	  0.046192	  0.202981	  0.645852	
8.38306	  0.045782	  0.193988	  0.649440	
8.41633	  0.045783	  0.188339	  0.650730	
8.4496	  0.046419	  0.187328	  0.650614	
8.48286	  0.047648	  0.191028	  0.650862	
8.51613	  0.049183	  0.198246	  0.652115	
8.5494	  0.050515	  0.206343	  0.654110	
8.58266	  0.051111	  0.212445	  0.654067	
8.61593	  0.050875	  0.215649	  0.652262	
8.64919	  0.050069	  0.216481	  0.651515	
8.68246	  0.049114	  0.216425	  0.650578	
8.71573	  0.048323	  0.217369	  0.645370	
8.74899	  0.047670	  0.219305	  0.630626	
8.78226	  0.047181	  0.221478	  0.606766	
8.81552	  0.046781	  0.222097	  0.578929	
8.84879	  0.046524	  0.220481	  0.553651	
8.88206	  0.046710	  0.218138	  0.536953	
8.91532	  0.047322	  0.215883	  0.531466	
8.94859	  0.048106	  0.213568	  0.536474	
8.98185	  0.048592	  0.210043	  0.547414	
9.01512	  0.048511	  0.204815	  0.558021	
9.04839	  0.048323	  0.200983	  0.567759	
9.08165	  0.048530	  0.200871	  0.578584	
9.11492	  0.049240	  0.204741	  0.590100	
9.14819	  0.050120	  0.210470	  0.603886	
9.18145	  0.050510	  0.214988	  0.620417	
9.21472	  0.050035	  0.216220	  0.640183	
9.24798	  0.048940	  0.214691	  0.660695	
9.28125	  0.047447	  0.211577	  0.677400	
9.31452	  0.045643	  0.206292	  0.687542	
9.34778	  0.043810	  0.198532	  0.688148	
9.38105	  0.042113	  0.188275	  0.670813	
9.41431	  0.040872	  0.176392	  0.626781	
9.44758	  0.040651	  0.164718	  0.558816	
9.48085	  0.041790	  0.153626	  0.473960	
9.51411	  0.044645	  0.143394	  0.379947	
9.54738	  0.049691	  0.135127	  0.285248	
9.58065	  0.057039	  0.129763	  0.199162	
9.61391	  0.066006	  0.128440	  0.128383	
9.64718	  0.074558	  0.130500	  0.075004	
9.68044	  0.080447	  0.133644	  0.038027	
9.71371	  0.082876	  0.137026	  0.014841	
9.74698	  0.082859	  0.142543	  0.002360	
9.78024	  0.081779	  0.149947	 -0.002484	
9.81351	  0.079769	  0.155454	 -0.002493	
9.84677	  0.075444	  0.154438	  0.000083	
9.88004	  0.067200	  0.147689	  0.003738	
9.91331	  0.055648	  0.137738	  0.007453	
9.94657	  0.043015	  0.125778	  0.010583	
9.97984	  0.031173	  0.113168	  0.012661	
10.0131	  0.021206	  0.100990	  0.013616	
10.0464	  0.013492	  0.088926	  0.013571	
10.0796	  0.007938	  0.076768	  0.012662	
10.1129	  0.004235	  0.064373	  0.011302	
10.1462	  0.001998	  0.052058	  0.009883	
10.1794	  0.000828	  0.040391	  0.008681	
10.2127	  0.000380	  0.030435	  0.007879	
10.246	  0.000377	  0.022623	  0.007504	
10.2792	  0.000613	  0.016779	  0.007454	
10.3125	  0.000935	  0.012336	  0.007649	
10.3458	  0.001258	  0.008945	  0.007981	
10.379	  0.001541	  0.006481	  0.008248	
10.4123	  0.001772	  0.004746	  0.008171	
10.4456	  0.001945	  0.003592	  0.007553	
10.4788	  0.002074	  0.002901	  0.006639	
10.5121	  0.002177	  0.002564	  0.005720	
10.5454	  0.002263	  0.002479	  0.004963	
10.5786	  0.002339	  0.002559	  0.004413	
10.6119	  0.002399	  0.002730	  0.004022	
10.6452	  0.002433	  0.002935	  0.003713	
10.6784	  0.002445	  0.003134	  0.003490	
10.7117	  0.002446	  0.003311	  0.003365	
10.745	  0.002446	  0.003455	  0.003353	
10.7782	  0.002445	  0.003560	  0.003438	
10.8115	  0.002434	  0.003624	  0.003553	
10.8448	  0.002414	  0.003650	  0.003626	
10.878	  0.002399	  0.003639	  0.003662	
10.9113	  0.002404	  0.003608	  0.003682	
10.9446	  0.002427	  0.003563	  0.003676	
10.9778	  0.002454	  0.003498	  0.003576	
11.0111	  0.002480	  0.003419	  0.003325	
11.0444	  0.002494	  0.003321	  0.002977	
11.0776	  0.002485	  0.003194	  0.002605	
11.1109	  0.002460	  0.003036	  0.002255	
11.1442	  0.002428	  0.002855	  0.001960	
11.1774	  0.002405	  0.002672	  0.001732	
11.2107	  0.002401	  0.002507	  0.001571	
11.244	  0.002419	  0.002379	  0.001464	
11.2772	  0.002454	  0.002326	  0.001392	
11.3105	  0.002495	  0.002400	  0.001348	
11.3437	  0.002529	  0.002679	  0.001331	
11.377	  0.002558	  0.003257	  0.001334	
11.4103	  0.002583	  0.004252	  0.001352	
11.4435	  0.002598	  0.005780	  0.001378	
11.4768	  0.002605	  0.007915	  0.001398	
11.5101	  0.002610	  0.010641	  0.001401	
11.5433	  0.002609	  0.013802	  0.001383	
11.5766	  0.002587	  0.017008	  0.001338	
11.6099	  0.002545	  0.019562	  0.001272	
11.6431	  0.002486	  0.020380	  0.001193	
11.6764	  0.002427	  0.018971	  0.001107	
11.7097	  0.002393	  0.016231	  0.001020	
11.7429	  0.002398	  0.013054	  0.000943	
11.7762	  0.002453	  0.010040	  0.000894	
